<mxfile host="65bd71144e" modified="2020-10-31T19:50:06.432Z" agent="5.0 (Windows NT 10.0; Win64; x64) AppleWebKit/537.36 (KHTML, like Gecko) Code/1.50.1 Chrome/83.0.4103.122 Electron/9.2.1 Safari/537.36" version="13.6.5" etag="JTISqH3iRjnA6qlmd3s9">
    <diagram id="AnG5EU1cpC8d7HSVvBTU" name="Page-1">
        <mxGraphModel dx="1208" dy="834" grid="1" gridSize="10" guides="1" tooltips="1" connect="1" arrows="1" fold="1" page="1" pageScale="1" pageWidth="827" pageHeight="1169" math="0" shadow="0">
            <root>
                <mxCell id="0"/>
                <mxCell id="1" parent="0"/>
                <mxCell id="178" value="FAMILIA" style="whiteSpace=wrap;html=1;align=center;rounded=0;sketch=0;" vertex="1" parent="1">
                    <mxGeometry x="620" y="530" width="120" height="60" as="geometry"/>
                </mxCell>
                <mxCell id="179" value="GENERO" style="whiteSpace=wrap;html=1;align=center;rounded=0;sketch=0;" vertex="1" parent="1">
                    <mxGeometry x="510" y="330" width="120" height="60" as="geometry"/>
                </mxCell>
                <mxCell id="180" value="ESPECIE" style="whiteSpace=wrap;html=1;align=center;rounded=0;sketch=0;" vertex="1" parent="1">
                    <mxGeometry x="240" y="450" width="120" height="60" as="geometry"/>
                </mxCell>
                <mxCell id="181" style="edgeStyle=none;rounded=1;sketch=0;orthogonalLoop=1;jettySize=auto;html=1;entryX=0.5;entryY=0;entryDx=0;entryDy=0;endArrow=none;endFill=0;" edge="1" parent="1" source="182" target="178">
                    <mxGeometry relative="1" as="geometry"/>
                </mxCell>
                <mxCell id="182" value="Nombre_Familia" style="ellipse;whiteSpace=wrap;html=1;align=center;fontStyle=4;rounded=0;sketch=0;" vertex="1" parent="1">
                    <mxGeometry x="650" y="430" width="100" height="40" as="geometry"/>
                </mxCell>
                <mxCell id="183" style="edgeStyle=none;rounded=1;sketch=0;orthogonalLoop=1;jettySize=auto;html=1;entryX=0.75;entryY=0;entryDx=0;entryDy=0;endArrow=none;endFill=0;" edge="1" parent="1" source="184" target="179">
                    <mxGeometry relative="1" as="geometry"/>
                </mxCell>
                <mxCell id="184" value="Nombre_Genero" style="ellipse;whiteSpace=wrap;html=1;align=center;fontStyle=4;rounded=0;sketch=0;" vertex="1" parent="1">
                    <mxGeometry x="610" y="220" width="100" height="40" as="geometry"/>
                </mxCell>
                <mxCell id="185" style="edgeStyle=none;rounded=1;sketch=0;orthogonalLoop=1;jettySize=auto;html=1;entryX=0.75;entryY=0;entryDx=0;entryDy=0;endArrow=none;endFill=0;" edge="1" parent="1" source="186" target="180">
                    <mxGeometry relative="1" as="geometry"/>
                </mxCell>
                <mxCell id="186" value="Nombre_Especie" style="ellipse;whiteSpace=wrap;html=1;align=center;fontStyle=4;rounded=0;sketch=0;" vertex="1" parent="1">
                    <mxGeometry x="250" y="330" width="100" height="40" as="geometry"/>
                </mxCell>
                <mxCell id="187" style="edgeStyle=none;rounded=1;sketch=0;orthogonalLoop=1;jettySize=auto;html=1;entryX=0.25;entryY=0;entryDx=0;entryDy=0;endArrow=none;endFill=0;" edge="1" parent="1" source="188" target="180">
                    <mxGeometry relative="1" as="geometry"/>
                </mxCell>
                <mxCell id="188" value="Nombre_Cientifico" style="ellipse;whiteSpace=wrap;html=1;align=center;rounded=0;sketch=0;" vertex="1" parent="1">
                    <mxGeometry x="140" y="360" width="100" height="40" as="geometry"/>
                </mxCell>
                <mxCell id="189" value="ESPECIE" style="whiteSpace=wrap;html=1;align=center;rounded=0;sketch=0;" vertex="1" parent="1">
                    <mxGeometry x="240" y="740" width="120" height="60" as="geometry"/>
                </mxCell>
                <mxCell id="190" style="edgeStyle=none;rounded=1;sketch=0;orthogonalLoop=1;jettySize=auto;html=1;entryX=0;entryY=0.75;entryDx=0;entryDy=0;endArrow=none;endFill=0;" edge="1" parent="1" source="191" target="189">
                    <mxGeometry relative="1" as="geometry"/>
                </mxCell>
                <mxCell id="191" value="Nombre_Comun" style="ellipse;whiteSpace=wrap;html=1;align=center;rounded=0;sketch=0;" vertex="1" parent="1">
                    <mxGeometry x="95" y="820" width="100" height="40" as="geometry"/>
                </mxCell>
                <mxCell id="192" style="edgeStyle=none;rounded=1;sketch=0;orthogonalLoop=1;jettySize=auto;html=1;entryX=0.25;entryY=1;entryDx=0;entryDy=0;endArrow=none;endFill=0;" edge="1" parent="1" source="193" target="189">
                    <mxGeometry relative="1" as="geometry"/>
                </mxCell>
                <mxCell id="193" value="Fecha_Captura" style="ellipse;whiteSpace=wrap;html=1;align=center;rounded=0;sketch=0;" vertex="1" parent="1">
                    <mxGeometry x="180" y="870" width="100" height="40" as="geometry"/>
                </mxCell>
                <mxCell id="194" style="edgeStyle=none;rounded=1;sketch=0;orthogonalLoop=1;jettySize=auto;html=1;entryX=0.5;entryY=1;entryDx=0;entryDy=0;endArrow=none;endFill=0;" edge="1" parent="1" source="195" target="189">
                    <mxGeometry relative="1" as="geometry"/>
                </mxCell>
                <mxCell id="195" value="Hora_Captura" style="ellipse;whiteSpace=wrap;html=1;align=center;rounded=0;sketch=0;" vertex="1" parent="1">
                    <mxGeometry x="290" y="890" width="100" height="40" as="geometry"/>
                </mxCell>
                <mxCell id="196" style="edgeStyle=none;rounded=1;sketch=0;orthogonalLoop=1;jettySize=auto;html=1;entryX=1.008;entryY=0.9;entryDx=0;entryDy=0;endArrow=none;endFill=0;entryPerimeter=0;" edge="1" parent="1" source="197" target="189">
                    <mxGeometry relative="1" as="geometry"/>
                </mxCell>
                <mxCell id="197" value="TamaÃ±o" style="ellipse;whiteSpace=wrap;html=1;align=center;rounded=0;sketch=0;" vertex="1" parent="1">
                    <mxGeometry x="440" y="750" width="100" height="40" as="geometry"/>
                </mxCell>
                <mxCell id="198" style="edgeStyle=none;rounded=1;sketch=0;orthogonalLoop=1;jettySize=auto;html=1;entryX=1;entryY=0.75;entryDx=0;entryDy=0;endArrow=none;endFill=0;" edge="1" parent="1" source="199" target="189">
                    <mxGeometry relative="1" as="geometry"/>
                </mxCell>
                <mxCell id="199" value="Localidad" style="ellipse;whiteSpace=wrap;html=1;align=center;rounded=0;sketch=0;" vertex="1" parent="1">
                    <mxGeometry x="480" y="690" width="100" height="40" as="geometry"/>
                </mxCell>
                <mxCell id="200" style="edgeStyle=none;rounded=1;sketch=0;orthogonalLoop=1;jettySize=auto;html=1;entryX=0;entryY=0.5;entryDx=0;entryDy=0;endArrow=none;endFill=0;" edge="1" parent="1" source="201" target="189">
                    <mxGeometry relative="1" as="geometry"/>
                </mxCell>
                <mxCell id="201" value="Provincia" style="ellipse;whiteSpace=wrap;html=1;align=center;rounded=0;sketch=0;" vertex="1" parent="1">
                    <mxGeometry x="70" y="760" width="100" height="40" as="geometry"/>
                </mxCell>
                <mxCell id="202" style="edgeStyle=none;rounded=1;sketch=0;orthogonalLoop=1;jettySize=auto;html=1;entryX=0;entryY=0.5;entryDx=0;entryDy=0;endArrow=none;endFill=0;" edge="1" parent="1" source="203" target="206">
                    <mxGeometry relative="1" as="geometry"/>
                </mxCell>
                <mxCell id="203" value="EJMPLAR" style="whiteSpace=wrap;html=1;align=center;rounded=0;sketch=0;" vertex="1" parent="1">
                    <mxGeometry x="530" y="950" width="120" height="60" as="geometry"/>
                </mxCell>
                <mxCell id="204" style="edgeStyle=none;rounded=1;sketch=0;orthogonalLoop=1;jettySize=auto;html=1;entryX=0.75;entryY=0;entryDx=0;entryDy=0;endArrow=none;endFill=0;" edge="1" parent="1" source="206" target="208">
                    <mxGeometry relative="1" as="geometry"/>
                </mxCell>
                <mxCell id="205" style="edgeStyle=none;rounded=1;sketch=0;orthogonalLoop=1;jettySize=auto;html=1;entryX=0.25;entryY=0;entryDx=0;entryDy=0;endArrow=none;endFill=0;" edge="1" parent="1" source="206" target="207">
                    <mxGeometry relative="1" as="geometry"/>
                </mxCell>
                <mxCell id="206" value="" style="triangle;whiteSpace=wrap;html=1;rounded=0;sketch=0;rotation=90;" vertex="1" parent="1">
                    <mxGeometry x="560" y="1060" width="60" height="80" as="geometry"/>
                </mxCell>
                <mxCell id="207" value="OBSERVAR" style="whiteSpace=wrap;html=1;align=center;rounded=0;sketch=0;" vertex="1" parent="1">
                    <mxGeometry x="340" y="1180" width="120" height="60" as="geometry"/>
                </mxCell>
                <mxCell id="208" value="COLECCIONAR" style="whiteSpace=wrap;html=1;align=center;rounded=0;sketch=0;" vertex="1" parent="1">
                    <mxGeometry x="630" y="1280" width="120" height="60" as="geometry"/>
                </mxCell>
                <mxCell id="209" style="edgeStyle=none;rounded=1;sketch=0;orthogonalLoop=1;jettySize=auto;html=1;endArrow=none;endFill=0;entryX=0.119;entryY=1.006;entryDx=0;entryDy=0;entryPerimeter=0;" edge="1" parent="1" source="210" target="208">
                    <mxGeometry relative="1" as="geometry">
                        <mxPoint x="740" y="1230" as="targetPoint"/>
                    </mxGeometry>
                </mxCell>
                <mxCell id="210" value="Precio_Ejemplar" style="ellipse;whiteSpace=wrap;html=1;align=center;rounded=0;sketch=0;" vertex="1" parent="1">
                    <mxGeometry x="620" y="1410" width="100" height="40" as="geometry"/>
                </mxCell>
                <mxCell id="211" style="edgeStyle=none;rounded=1;sketch=0;orthogonalLoop=1;jettySize=auto;html=1;entryX=0;entryY=1;entryDx=0;entryDy=0;endArrow=none;endFill=0;" edge="1" parent="1" source="212" target="208">
                    <mxGeometry relative="1" as="geometry"/>
                </mxCell>
                <mxCell id="212" value="Comentarios" style="ellipse;whiteSpace=wrap;html=1;align=center;rounded=0;sketch=0;" vertex="1" parent="1">
                    <mxGeometry x="510" y="1390" width="100" height="40" as="geometry"/>
                </mxCell>
                <mxCell id="213" style="edgeStyle=none;rounded=1;sketch=0;orthogonalLoop=1;jettySize=auto;html=1;entryX=0.25;entryY=1;entryDx=0;entryDy=0;endArrow=none;endFill=0;" edge="1" parent="1" source="214" target="207">
                    <mxGeometry relative="1" as="geometry"/>
                </mxCell>
                <mxCell id="214" value="Tiempo_Estudio" style="ellipse;whiteSpace=wrap;html=1;align=center;rounded=0;sketch=0;" vertex="1" parent="1">
                    <mxGeometry x="250" y="1270" width="100" height="40" as="geometry"/>
                </mxCell>
                <mxCell id="215" style="edgeStyle=none;rounded=1;sketch=0;orthogonalLoop=1;jettySize=auto;html=1;entryX=0.5;entryY=1;entryDx=0;entryDy=0;endArrow=none;endFill=0;" edge="1" parent="1" source="216" target="207">
                    <mxGeometry relative="1" as="geometry"/>
                </mxCell>
                <mxCell id="216" value="Analisis_Observacion" style="ellipse;whiteSpace=wrap;html=1;align=center;rounded=0;sketch=0;" vertex="1" parent="1">
                    <mxGeometry x="390" y="1310" width="100" height="40" as="geometry"/>
                </mxCell>
                <mxCell id="217" style="edgeStyle=none;rounded=1;sketch=0;orthogonalLoop=1;jettySize=auto;html=1;entryX=0.917;entryY=1;entryDx=0;entryDy=0;entryPerimeter=0;endArrow=none;endFill=0;" edge="1" parent="1" source="233" target="179">
                    <mxGeometry relative="1" as="geometry"/>
                </mxCell>
                <mxCell id="218" style="edgeStyle=none;rounded=1;sketch=0;orthogonalLoop=1;jettySize=auto;html=1;entryX=0;entryY=0.5;entryDx=0;entryDy=0;endArrow=none;endFill=0;" edge="1" parent="1" source="219" target="178">
                    <mxGeometry relative="1" as="geometry"/>
                </mxCell>
                <mxCell id="219" value="PERTENECER" style="shape=rhombus;perimeter=rhombusPerimeter;whiteSpace=wrap;html=1;align=center;rounded=0;sketch=0;" vertex="1" parent="1">
                    <mxGeometry x="520" y="480" width="120" height="60" as="geometry"/>
                </mxCell>
                <mxCell id="220" style="edgeStyle=none;rounded=1;sketch=0;orthogonalLoop=1;jettySize=auto;html=1;entryX=1;entryY=0.5;entryDx=0;entryDy=0;endArrow=none;endFill=0;" edge="1" parent="1" source="222" target="180">
                    <mxGeometry relative="1" as="geometry"/>
                </mxCell>
                <mxCell id="221" style="edgeStyle=none;rounded=1;sketch=0;orthogonalLoop=1;jettySize=auto;html=1;entryX=0.25;entryY=1;entryDx=0;entryDy=0;endArrow=none;endFill=0;" edge="1" parent="1" source="222" target="179">
                    <mxGeometry relative="1" as="geometry"/>
                </mxCell>
                <mxCell id="222" value="PERTENECER" style="shape=rhombus;perimeter=rhombusPerimeter;whiteSpace=wrap;html=1;align=center;rounded=0;sketch=0;" vertex="1" parent="1">
                    <mxGeometry x="380" y="410" width="120" height="60" as="geometry"/>
                </mxCell>
                <mxCell id="223" value="N:1" style="text;html=1;align=center;verticalAlign=middle;resizable=0;points=[];autosize=1;" vertex="1" parent="1">
                    <mxGeometry x="425" y="390" width="30" height="20" as="geometry"/>
                </mxCell>
                <mxCell id="224" style="edgeStyle=none;rounded=1;sketch=0;orthogonalLoop=1;jettySize=auto;html=1;entryX=0.5;entryY=0;entryDx=0;entryDy=0;endArrow=none;endFill=0;" edge="1" parent="1" source="226" target="189">
                    <mxGeometry relative="1" as="geometry"/>
                </mxCell>
                <mxCell id="225" style="edgeStyle=none;rounded=1;sketch=0;orthogonalLoop=1;jettySize=auto;html=1;entryX=0.5;entryY=1;entryDx=0;entryDy=0;endArrow=none;endFill=0;" edge="1" parent="1" source="226" target="180">
                    <mxGeometry relative="1" as="geometry"/>
                </mxCell>
                <mxCell id="226" value="PERTENECER" style="shape=rhombus;perimeter=rhombusPerimeter;whiteSpace=wrap;html=1;align=center;rounded=0;sketch=0;" vertex="1" parent="1">
                    <mxGeometry x="240" y="610" width="120" height="60" as="geometry"/>
                </mxCell>
                <mxCell id="227" value="" style="edgeStyle=none;rounded=1;sketch=0;orthogonalLoop=1;jettySize=auto;html=1;endArrow=none;endFill=0;" edge="1" parent="1" source="228" target="226">
                    <mxGeometry relative="1" as="geometry"/>
                </mxCell>
                <mxCell id="228" value="N:1" style="text;html=1;align=center;verticalAlign=middle;resizable=0;points=[];autosize=1;" vertex="1" parent="1">
                    <mxGeometry x="285" y="590" width="30" height="20" as="geometry"/>
                </mxCell>
                <mxCell id="229" style="edgeStyle=none;rounded=1;sketch=0;orthogonalLoop=1;jettySize=auto;html=1;entryX=0.75;entryY=1;entryDx=0;entryDy=0;endArrow=none;endFill=0;" edge="1" parent="1" target="189">
                    <mxGeometry relative="1" as="geometry">
                        <mxPoint x="440" y="870" as="sourcePoint"/>
                    </mxGeometry>
                </mxCell>
                <mxCell id="230" style="edgeStyle=none;rounded=1;sketch=0;orthogonalLoop=1;jettySize=auto;html=1;entryX=0.25;entryY=0;entryDx=0;entryDy=0;endArrow=none;endFill=0;" edge="1" parent="1" source="231" target="203">
                    <mxGeometry relative="1" as="geometry"/>
                </mxCell>
                <mxCell id="231" value="PERTENECER" style="shape=rhombus;perimeter=rhombusPerimeter;whiteSpace=wrap;html=1;align=center;rounded=0;sketch=0;" vertex="1" parent="1">
                    <mxGeometry x="400" y="850" width="120" height="60" as="geometry"/>
                </mxCell>
                <mxCell id="232" value="N:1" style="text;html=1;align=center;verticalAlign=middle;resizable=0;points=[];autosize=1;" vertex="1" parent="1">
                    <mxGeometry x="445" y="830" width="30" height="20" as="geometry"/>
                </mxCell>
                <mxCell id="233" value="N:1" style="text;html=1;align=center;verticalAlign=middle;resizable=0;points=[];autosize=1;" vertex="1" parent="1">
                    <mxGeometry x="565" y="460" width="30" height="20" as="geometry"/>
                </mxCell>
                <mxCell id="234" style="edgeStyle=none;rounded=1;sketch=0;orthogonalLoop=1;jettySize=auto;html=1;entryX=0.917;entryY=1;entryDx=0;entryDy=0;entryPerimeter=0;endArrow=none;endFill=0;" edge="1" parent="1" source="219" target="233">
                    <mxGeometry relative="1" as="geometry">
                        <mxPoint x="588.5787744607912" y="484.28938723039573" as="sourcePoint"/>
                        <mxPoint x="620.04" y="390" as="targetPoint"/>
                    </mxGeometry>
                </mxCell>
                <mxCell id="235" style="edgeStyle=none;rounded=1;sketch=0;orthogonalLoop=1;jettySize=auto;html=1;entryX=0.5;entryY=0;entryDx=0;entryDy=0;endArrow=none;endFill=0;" edge="1" parent="1" source="236" target="267">
                    <mxGeometry relative="1" as="geometry"/>
                </mxCell>
                <mxCell id="236" value="PERSONA" style="whiteSpace=wrap;html=1;align=center;rounded=0;sketch=0;" vertex="1" parent="1">
                    <mxGeometry x="810" y="850" width="120" height="60" as="geometry"/>
                </mxCell>
                <mxCell id="237" style="edgeStyle=none;rounded=1;sketch=0;orthogonalLoop=1;jettySize=auto;html=1;entryX=0.75;entryY=0;entryDx=0;entryDy=0;endArrow=none;endFill=0;" edge="1" parent="1" source="238" target="236">
                    <mxGeometry relative="1" as="geometry"/>
                </mxCell>
                <mxCell id="238" value="Nombre" style="ellipse;whiteSpace=wrap;html=1;align=center;rounded=0;sketch=0;" vertex="1" parent="1">
                    <mxGeometry x="930" y="770" width="100" height="40" as="geometry"/>
                </mxCell>
                <mxCell id="239" style="edgeStyle=none;rounded=1;sketch=0;orthogonalLoop=1;jettySize=auto;html=1;endArrow=none;endFill=0;" edge="1" parent="1" source="240">
                    <mxGeometry relative="1" as="geometry">
                        <mxPoint x="997" y="769" as="targetPoint"/>
                    </mxGeometry>
                </mxCell>
                <mxCell id="240" value="Apellidos" style="ellipse;whiteSpace=wrap;html=1;align=center;rounded=0;sketch=0;" vertex="1" parent="1">
                    <mxGeometry x="1010" y="700" width="100" height="40" as="geometry"/>
                </mxCell>
                <mxCell id="241" style="edgeStyle=none;rounded=1;sketch=0;orthogonalLoop=1;jettySize=auto;html=1;entryX=0.995;entryY=0.391;entryDx=0;entryDy=0;entryPerimeter=0;endArrow=none;endFill=0;" edge="1" parent="1" source="242" target="236">
                    <mxGeometry relative="1" as="geometry"/>
                </mxCell>
                <mxCell id="242" value="Domicilio" style="ellipse;whiteSpace=wrap;html=1;align=center;rounded=0;sketch=0;" vertex="1" parent="1">
                    <mxGeometry x="990" y="830" width="100" height="40" as="geometry"/>
                </mxCell>
                <mxCell id="243" style="edgeStyle=none;rounded=1;sketch=0;orthogonalLoop=1;jettySize=auto;html=1;entryX=1.024;entryY=0.667;entryDx=0;entryDy=0;entryPerimeter=0;endArrow=none;endFill=0;" edge="1" parent="1" source="244" target="236">
                    <mxGeometry relative="1" as="geometry"/>
                </mxCell>
                <mxCell id="244" value="Municipio" style="ellipse;whiteSpace=wrap;html=1;align=center;rounded=0;sketch=0;" vertex="1" parent="1">
                    <mxGeometry x="1010" y="880" width="100" height="40" as="geometry"/>
                </mxCell>
                <mxCell id="245" style="edgeStyle=none;rounded=1;sketch=0;orthogonalLoop=1;jettySize=auto;html=1;entryX=1;entryY=1;entryDx=0;entryDy=0;endArrow=none;endFill=0;" edge="1" parent="1" source="246" target="236">
                    <mxGeometry relative="1" as="geometry"/>
                </mxCell>
                <mxCell id="246" value="Provincia" style="ellipse;whiteSpace=wrap;html=1;align=center;rounded=0;sketch=0;" vertex="1" parent="1">
                    <mxGeometry x="990" y="930" width="100" height="40" as="geometry"/>
                </mxCell>
                <mxCell id="247" style="edgeStyle=none;rounded=1;sketch=0;orthogonalLoop=1;jettySize=auto;html=1;entryX=0.823;entryY=1.024;entryDx=0;entryDy=0;entryPerimeter=0;endArrow=none;endFill=0;" edge="1" parent="1" source="248" target="236">
                    <mxGeometry relative="1" as="geometry"/>
                </mxCell>
                <mxCell id="248" value="Movil" style="ellipse;whiteSpace=wrap;html=1;align=center;rounded=0;sketch=0;" vertex="1" parent="1">
                    <mxGeometry x="930" y="980" width="100" height="40" as="geometry"/>
                </mxCell>
                <mxCell id="249" style="edgeStyle=none;rounded=1;sketch=0;orthogonalLoop=1;jettySize=auto;html=1;entryX=0.599;entryY=1.012;entryDx=0;entryDy=0;entryPerimeter=0;endArrow=none;endFill=0;" edge="1" parent="1" source="250" target="236">
                    <mxGeometry relative="1" as="geometry"/>
                </mxCell>
                <mxCell id="250" value="Email" style="ellipse;whiteSpace=wrap;html=1;align=center;rounded=0;sketch=0;" vertex="1" parent="1">
                    <mxGeometry x="850" y="1010" width="100" height="40" as="geometry"/>
                </mxCell>
                <mxCell id="251" style="edgeStyle=none;rounded=1;sketch=0;orthogonalLoop=1;jettySize=auto;html=1;entryX=0.551;entryY=-0.022;entryDx=0;entryDy=0;entryPerimeter=0;endArrow=none;endFill=0;" edge="1" parent="1" source="252" target="236">
                    <mxGeometry relative="1" as="geometry"/>
                </mxCell>
                <mxCell id="252" value="DNI" style="ellipse;whiteSpace=wrap;html=1;align=center;fontStyle=4;rounded=0;sketch=0;" vertex="1" parent="1">
                    <mxGeometry x="870" y="710" width="100" height="40" as="geometry"/>
                </mxCell>
                <mxCell id="253" style="edgeStyle=none;rounded=1;sketch=0;orthogonalLoop=1;jettySize=auto;html=1;entryX=0.5;entryY=0;entryDx=0;entryDy=0;endArrow=none;endFill=0;" edge="1" parent="1" source="255" target="203">
                    <mxGeometry relative="1" as="geometry"/>
                </mxCell>
                <mxCell id="254" style="edgeStyle=none;rounded=1;sketch=0;orthogonalLoop=1;jettySize=auto;html=1;entryX=0;entryY=0.5;entryDx=0;entryDy=0;endArrow=none;endFill=0;" edge="1" parent="1" source="255" target="236">
                    <mxGeometry relative="1" as="geometry"/>
                </mxCell>
                <mxCell id="255" value="CAPTURAR" style="shape=rhombus;perimeter=rhombusPerimeter;whiteSpace=wrap;html=1;align=center;rounded=0;sketch=0;" vertex="1" parent="1">
                    <mxGeometry x="680" y="890" width="120" height="60" as="geometry"/>
                </mxCell>
                <mxCell id="256" value="1:N" style="text;html=1;align=center;verticalAlign=middle;resizable=0;points=[];autosize=1;" vertex="1" parent="1">
                    <mxGeometry x="725" y="870" width="30" height="20" as="geometry"/>
                </mxCell>
                <mxCell id="257" value="COLECCION" style="whiteSpace=wrap;html=1;align=center;rounded=0;sketch=0;" vertex="1" parent="1">
                    <mxGeometry x="940" y="1270" width="120" height="60" as="geometry"/>
                </mxCell>
                <mxCell id="258" style="edgeStyle=none;rounded=1;sketch=0;orthogonalLoop=1;jettySize=auto;html=1;entryX=0.25;entryY=1;entryDx=0;entryDy=0;endArrow=none;endFill=0;" edge="1" parent="1" source="259" target="257">
                    <mxGeometry relative="1" as="geometry"/>
                </mxCell>
                <mxCell id="259" value="Titulo_Coleccion" style="ellipse;whiteSpace=wrap;html=1;align=center;fontStyle=4;rounded=0;sketch=0;" vertex="1" parent="1">
                    <mxGeometry x="840" y="1380" width="100" height="40" as="geometry"/>
                </mxCell>
                <mxCell id="260" style="edgeStyle=none;rounded=1;sketch=0;orthogonalLoop=1;jettySize=auto;html=1;entryX=0.5;entryY=1;entryDx=0;entryDy=0;endArrow=none;endFill=0;" edge="1" parent="1" source="261" target="257">
                    <mxGeometry relative="1" as="geometry"/>
                </mxCell>
                <mxCell id="261" value="Fecha_Inicio" style="ellipse;whiteSpace=wrap;html=1;align=center;rounded=0;sketch=0;" vertex="1" parent="1">
                    <mxGeometry x="910" y="1420" width="100" height="40" as="geometry"/>
                </mxCell>
                <mxCell id="262" style="edgeStyle=none;rounded=1;sketch=0;orthogonalLoop=1;jettySize=auto;html=1;entryX=0.663;entryY=1.055;entryDx=0;entryDy=0;entryPerimeter=0;endArrow=none;endFill=0;" edge="1" parent="1" source="263" target="257">
                    <mxGeometry relative="1" as="geometry"/>
                </mxCell>
                <mxCell id="263" value="Precio_Estimado" style="ellipse;whiteSpace=wrap;html=1;align=center;rounded=0;sketch=0;" vertex="1" parent="1">
                    <mxGeometry x="1000" y="1450" width="100" height="40" as="geometry"/>
                </mxCell>
                <mxCell id="264" style="edgeStyle=none;rounded=1;sketch=0;orthogonalLoop=1;jettySize=auto;html=1;entryX=0.869;entryY=0.996;entryDx=0;entryDy=0;entryPerimeter=0;endArrow=none;endFill=0;" edge="1" parent="1" source="265" target="257">
                    <mxGeometry relative="1" as="geometry"/>
                </mxCell>
                <mxCell id="265" value="Cuidadps" style="ellipse;whiteSpace=wrap;html=1;align=center;rounded=0;sketch=0;" vertex="1" parent="1">
                    <mxGeometry x="1070" y="1400" width="100" height="40" as="geometry"/>
                </mxCell>
                <mxCell id="266" style="edgeStyle=none;rounded=1;sketch=0;orthogonalLoop=1;jettySize=auto;html=1;entryX=0.5;entryY=0;entryDx=0;entryDy=0;endArrow=none;endFill=0;" edge="1" parent="1" source="267" target="257">
                    <mxGeometry relative="1" as="geometry"/>
                </mxCell>
                <mxCell id="267" value="CONTENER" style="shape=rhombus;perimeter=rhombusPerimeter;whiteSpace=wrap;html=1;align=center;rounded=0;sketch=0;" vertex="1" parent="1">
                    <mxGeometry x="755" y="1070" width="120" height="60" as="geometry"/>
                </mxCell>
                <mxCell id="268" value="1:1" style="text;html=1;align=center;verticalAlign=middle;resizable=0;points=[];autosize=1;" vertex="1" parent="1">
                    <mxGeometry x="775" y="1050" width="30" height="20" as="geometry"/>
                </mxCell>
                <mxCell id="269" style="edgeStyle=none;rounded=1;sketch=0;orthogonalLoop=1;jettySize=auto;html=1;entryX=0.75;entryY=0;entryDx=0;entryDy=0;endArrow=none;endFill=0;" edge="1" parent="1" source="271" target="208">
                    <mxGeometry relative="1" as="geometry"/>
                </mxCell>
                <mxCell id="270" style="edgeStyle=none;rounded=1;sketch=0;orthogonalLoop=1;jettySize=auto;html=1;entryX=0;entryY=0;entryDx=0;entryDy=0;endArrow=none;endFill=0;" edge="1" parent="1" source="271" target="257">
                    <mxGeometry relative="1" as="geometry"/>
                </mxCell>
                <mxCell id="271" value="PERTENECER" style="shape=rhombus;perimeter=rhombusPerimeter;whiteSpace=wrap;html=1;align=center;rounded=0;sketch=0;" vertex="1" parent="1">
                    <mxGeometry x="755" y="1200" width="120" height="60" as="geometry"/>
                </mxCell>
                <mxCell id="272" value="" style="edgeStyle=none;rounded=1;sketch=0;orthogonalLoop=1;jettySize=auto;html=1;endArrow=none;endFill=0;" edge="1" parent="1" source="273" target="271">
                    <mxGeometry relative="1" as="geometry"/>
                </mxCell>
                <mxCell id="273" value="1:N" style="text;html=1;align=center;verticalAlign=middle;resizable=0;points=[];autosize=1;" vertex="1" parent="1">
                    <mxGeometry x="800" y="1180" width="30" height="20" as="geometry"/>
                </mxCell>
                <mxCell id="274" value="1,n" style="text;html=1;align=center;verticalAlign=middle;resizable=0;points=[];autosize=1;" vertex="1" parent="1">
                    <mxGeometry x="590" y="560" width="30" height="20" as="geometry"/>
                </mxCell>
                <mxCell id="275" value="1,1" style="text;html=1;align=center;verticalAlign=middle;resizable=0;points=[];autosize=1;" vertex="1" parent="1">
                    <mxGeometry x="580" y="390" width="30" height="20" as="geometry"/>
                </mxCell>
                <mxCell id="276" value="1,1" style="text;html=1;align=center;verticalAlign=middle;resizable=0;points=[];autosize=1;" vertex="1" parent="1">
                    <mxGeometry x="515" y="400" width="30" height="20" as="geometry"/>
                </mxCell>
                <mxCell id="277" value="1,n" style="text;html=1;align=center;verticalAlign=middle;resizable=0;points=[];autosize=1;" vertex="1" parent="1">
                    <mxGeometry x="360" y="480" width="30" height="20" as="geometry"/>
                </mxCell>
                <mxCell id="278" value="1,n" style="text;html=1;align=center;verticalAlign=middle;resizable=0;points=[];autosize=1;" vertex="1" parent="1">
                    <mxGeometry x="300" y="510" width="30" height="20" as="geometry"/>
                </mxCell>
                <mxCell id="279" value="1,1" style="text;html=1;align=center;verticalAlign=middle;resizable=0;points=[];autosize=1;" vertex="1" parent="1">
                    <mxGeometry x="300" y="720" width="30" height="20" as="geometry"/>
                </mxCell>
                <mxCell id="280" value="1,1" style="text;html=1;align=center;verticalAlign=middle;resizable=0;points=[];autosize=1;" vertex="1" parent="1">
                    <mxGeometry x="320" y="810" width="30" height="20" as="geometry"/>
                </mxCell>
                <mxCell id="281" value="1,n" style="text;html=1;align=center;verticalAlign=middle;resizable=0;points=[];autosize=1;" vertex="1" parent="1">
                    <mxGeometry x="510" y="930" width="30" height="20" as="geometry"/>
                </mxCell>
                <mxCell id="282" value="1,n" style="text;html=1;align=center;verticalAlign=middle;resizable=0;points=[];autosize=1;" vertex="1" parent="1">
                    <mxGeometry x="585" y="930" width="30" height="20" as="geometry"/>
                </mxCell>
                <mxCell id="283" value="1,1" style="text;html=1;align=center;verticalAlign=middle;resizable=0;points=[];autosize=1;" vertex="1" parent="1">
                    <mxGeometry x="780" y="860" width="30" height="20" as="geometry"/>
                </mxCell>
                <mxCell id="284" value="1,1" style="text;html=1;align=center;verticalAlign=middle;resizable=0;points=[];autosize=1;" vertex="1" parent="1">
                    <mxGeometry x="830" y="910" width="30" height="20" as="geometry"/>
                </mxCell>
                <mxCell id="285" value="1,1" style="text;html=1;align=center;verticalAlign=middle;resizable=0;points=[];autosize=1;" vertex="1" parent="1">
                    <mxGeometry x="1000" y="1250" width="30" height="20" as="geometry"/>
                </mxCell>
                <mxCell id="286" value="1,1" style="text;html=1;align=center;verticalAlign=middle;resizable=0;points=[];autosize=1;" vertex="1" parent="1">
                    <mxGeometry x="910" y="1270" width="30" height="20" as="geometry"/>
                </mxCell>
                <mxCell id="287" value="1,n" style="text;html=1;align=center;verticalAlign=middle;resizable=0;points=[];autosize=1;" vertex="1" parent="1">
                    <mxGeometry x="750" y="1270" width="30" height="20" as="geometry"/>
                </mxCell>
            </root>
        </mxGraphModel>
    </diagram>
</mxfile>